<?xml version="1.0" encoding="utf-8"?>
<!-- Generator: Adobe Illustrator 16.0.3, SVG Export Plug-In . SVG Version: 6.00 Build 0)  -->
<!DOCTYPE svg PUBLIC "-//W3C//DTD SVG 1.1//EN" "http://www.w3.org/Graphics/SVG/1.1/DTD/svg11.dtd">
<svg version="1.1" id="Capa_1" xmlns="http://www.w3.org/2000/svg" xmlns:xlink="http://www.w3.org/1999/xlink" x="0px" y="0px"
	 width="32px" height="32px" viewBox="0 0 32 32" enable-background="new 0 0 32 32" xml:space="preserve">
<g>
	<path fill-rule="evenodd" clip-rule="evenodd" fill="none" d="M21.573,18.243c20.866-2.699,43.179,8.683,52.312,26.953
		c4.971,9.945,9.294,20.213,14.327,31.252c4.98-11.236,9.624-21.598,14.17-32c9.604-21.966,19.192-43.939,28.716-65.94
		c4.482-10.352,12.363-15.368,23.525-15.415c7.916-0.032,15.83-0.006,24.693-0.006c-4.613,10.64-8.848,20.458-13.119,30.258
		c-18.266,41.894-36.548,83.78-54.818,125.673c-6.47,14.836-18.22,21.019-31.457,15.596c-4.009-1.643-8.381-5.217-10.163-9.037
		C53.548,90.833,37.87,55.839,22.069,20.903C21.709,20.109,21.732,19.143,21.573,18.243z"/>
	<path fill-rule="evenodd" clip-rule="evenodd" fill="none" d="M-85.855,136.187c0-57.521,0-114.698,0-172.559
		c1.783-0.124,3.765-0.376,5.748-0.379c25.548-0.027,51.097-0.092,76.645,0C33.61-36.616,67.87-8.958,75.665,27.013
		c0.273,1.263,0.327,2.573,0.619,4.982C60.116,13.116,39.852,7.233,16.882,8.429c-1.128,0.059-2.448,0.296-3.375-0.164
		C-1.544,0.8-17.685,4.234-33.399,3.509C-37.514,3.32-41.645,3.48-46.193,3.48c0,31.301,0,62.053,0,93.484
		c1.836,0.104,3.836,0.305,5.836,0.313c9.274,0.035,18.562-0.332,27.817,0.086c20.505,0.928,34.91-4.659,47.457-23.649
		c5.6,12.375,12.487,24.835,18.036,37.918c0.528,1.244-2.122,4.148-3.515,5.317c-13.091,10.98-28.243,18.417-45.226,18.969
		C-25.443,136.881-55.153,136.187-85.855,136.187z"/>
</g>
<g>
	<linearGradient id="SVGID_1_" gradientUnits="userSpaceOnUse" x1="17.7915" y1="8.6343" x2="28.8773" y2="19.7201">
		<stop  offset="0.1902" style="stop-color:#17A7CA"/>
		<stop  offset="0.7805" style="stop-color:#841083"/>
	</linearGradient>
	<linearGradient id="SVGID_2_" gradientUnits="userSpaceOnUse" x1="28.9897" y1="22.4536" x2="20.9199" y2="8.4763">
		<stop  offset="0.1902" style="stop-color:#17A7CA"/>
		<stop  offset="0.7805" style="stop-color:#841083"/>
	</linearGradient>
	
		<path fill-rule="evenodd" clip-rule="evenodd" fill="url(#SVGID_1_)" stroke="url(#SVGID_2_)" stroke-width="0.25" stroke-miterlimit="10" d="
		M13.44,12.985c2.38-0.308,4.925,0.99,5.967,3.074c0.567,1.134,1.06,2.305,1.634,3.565c0.568-1.282,1.098-2.463,1.617-3.65
		c1.095-2.505,2.189-5.011,3.275-7.521c0.511-1.181,1.41-1.753,2.683-1.759c0.903-0.003,1.806,0,2.817,0
		c-0.526,1.214-1.009,2.333-1.497,3.451c-2.083,4.778-4.169,9.556-6.252,14.334c-0.738,1.692-2.079,2.398-3.588,1.779
		c-0.458-0.187-0.956-0.595-1.16-1.031c-1.849-3.962-3.637-7.954-5.44-11.939C13.456,13.199,13.459,13.088,13.44,12.985z"/>
	<linearGradient id="SVGID_3_" gradientUnits="userSpaceOnUse" x1="-0.4375" y1="8.3823" x2="16.0255" y2="24.8453">
		<stop  offset="0.1902" style="stop-color:#17A7CA"/>
		<stop  offset="0.7805" style="stop-color:#841083"/>
	</linearGradient>
	<linearGradient id="SVGID_4_" gradientUnits="userSpaceOnUse" x1="14.0059" y1="26.0942" x2="2.3462" y2="5.8991">
		<stop  offset="0.1902" style="stop-color:#17A7CA"/>
		<stop  offset="0.7805" style="stop-color:#841083"/>
	</linearGradient>
	
		<path fill-rule="evenodd" clip-rule="evenodd" fill="url(#SVGID_3_)" stroke="url(#SVGID_4_)" stroke-width="0.25" stroke-miterlimit="10" d="
		M1.187,26.439c0-6.562,0-13.083,0-19.683c0.203-0.014,0.43-0.043,0.655-0.043c2.915-0.003,5.829-0.01,8.742,0
		c4.229,0.015,8.137,3.17,9.026,7.272c0.032,0.145,0.037,0.293,0.07,0.569c-1.844-2.154-4.155-2.825-6.775-2.688
		c-0.128,0.007-0.279,0.033-0.385-0.019c-1.717-0.852-3.558-0.46-5.351-0.542c-0.469-0.022-0.94-0.003-1.458-0.003
		c0,3.57,0,7.077,0,10.663C5.92,21.977,6.148,21.999,6.377,22c1.058,0.004,2.117-0.038,3.172,0.01
		c2.339,0.106,3.982-0.531,5.413-2.698c0.639,1.412,1.424,2.833,2.058,4.326c0.06,0.142-0.243,0.473-0.401,0.606
		c-1.493,1.253-3.221,2.101-5.158,2.164C8.077,26.517,4.689,26.439,1.187,26.439z"/>
</g>
</svg>
